HIERARCHY
ROOT root
{
	OFFSET 0.000000 0.000000 0.000000
	CHANNELS 6 Xposition Yposition Zposition Zrotation Yrotation Xrotation
	JOINT lhip
	{
		OFFSET 0.058581 -0.082280 -0.017664
		CHANNELS 3 Zrotation Yrotation Xrotation
		JOINT lknee
		{
			OFFSET 0.043451 -0.386469 0.008037
			CHANNELS 3 Zrotation Yrotation Xrotation
			JOINT lankle
			{
				OFFSET -0.014790 -0.426874 -0.037428
				CHANNELS 3 Zrotation Yrotation Xrotation
				JOINT ltoe
				{
					OFFSET 0.041054 -0.060286 0.122042
					CHANNELS 3 Zrotation Yrotation Xrotation
					End Site
					{
						OFFSET 0.000000 0.000000 0.000000
					}
				}
			}
		}
	}
	JOINT rhip
	{
		OFFSET -0.060310 -0.090513 -0.013543
		CHANNELS 3 Zrotation Yrotation Xrotation
		JOINT rknee
		{
			OFFSET -0.043257 -0.383688 -0.004843
			CHANNELS 3 Zrotation Yrotation Xrotation
			JOINT rankle
			{
				OFFSET 0.019056 -0.420046 -0.034562
				CHANNELS 3 Zrotation Yrotation Xrotation
				JOINT rtoe
				{
					OFFSET -0.034840 -0.062106 0.130323
					CHANNELS 3 Zrotation Yrotation Xrotation
					End Site
					{
						OFFSET 0.000000 0.000000 0.000000
					}
				}
			}
		}
	}
	JOINT lowerback
	{
		OFFSET 0.004439 0.124404 -0.038385
		CHANNELS 3 Zrotation Yrotation Xrotation
		JOINT upperback
		{
			OFFSET 0.004488 0.137956 0.026820
			CHANNELS 3 Zrotation Yrotation Xrotation
			JOINT chest
			{
				OFFSET -0.002265 0.056032 0.002855
				CHANNELS 3 Zrotation Yrotation Xrotation
				JOINT lowerneck
				{
					OFFSET -0.013390 0.211636 -0.033468
					CHANNELS 3 Zrotation Yrotation Xrotation
					JOINT upperneck
					{
						OFFSET 0.010113 0.088937 0.050410
						CHANNELS 3 Zrotation Yrotation Xrotation
						End Site
						{
							OFFSET 0.000000 0.000000 0.000000
						}
					}
				}
				JOINT lclavicle
				{
					OFFSET 0.071702 0.114000 -0.018898
					CHANNELS 3 Zrotation Yrotation Xrotation
					JOINT lshoulder
					{
						OFFSET 0.122921 0.045205 -0.019046
						CHANNELS 3 Zrotation Yrotation Xrotation
						JOINT lelbow
						{
							OFFSET 0.255332 -0.015649 -0.022946
							CHANNELS 3 Zrotation Yrotation Xrotation
							JOINT lwrist
							{
								OFFSET 0.265709 0.012698 -0.007375
								CHANNELS 3 Zrotation Yrotation Xrotation
								End Site
								{
									OFFSET 0.000000 0.000000 0.000000
								}
							}
						}
					}
				}
				JOINT rclavicle
				{
					OFFSET -0.082954 0.112472 -0.023707
					CHANNELS 3 Zrotation Yrotation Xrotation
					JOINT rshoulder
					{
						OFFSET -0.113228 0.046853 -0.008472
						CHANNELS 3 Zrotation Yrotation Xrotation
						JOINT relbow
						{
							OFFSET -0.260127 -0.014369 -0.031269
							CHANNELS 3 Zrotation Yrotation Xrotation
							JOINT rwrist
							{
								OFFSET -0.269108 0.006794 -0.006027
								CHANNELS 3 Zrotation Yrotation Xrotation
								End Site
								{
									OFFSET 0.000000 0.000000 0.000000
								}
							}
						}
					}
				}
			}
		}
	}
}
MOTION
Frames: 14
Frame Time: 0.033333
-0.029525 -0.105427 0.970824 -176.386152 -2.152478 82.696295 7.269036 2.106664 -16.563431 -14.931662 -5.258658 39.018115 -3.200361 2.180683 -18.786598 0.000000 -0.000000 0.000000 -3.558025 0.582282 -17.595440 2.430756 2.238645 30.418691 1.681753 -2.783200 -15.633433 0.000000 -0.000000 0.000000 0.368060 -0.013370 28.704636 4.028390 -2.485371 1.746369 1.689493 -1.254259 3.734589 -2.396689 2.144815 -3.759741 -0.514430 -5.762653 4.090841 -20.682127 1.090692 5.702397 -49.171182 -1.750402 9.349733 4.027051 -53.895242 18.337024 1.861887 -15.273428 -14.686699 21.250338 -0.358599 4.536906 47.980266 -4.642600 10.203097 -13.881457 46.093071 5.100425 -1.280186 9.254750 -4.883033 
-0.027755 -0.093718 0.977541 -177.776974 -2.203670 83.371673 6.609606 1.196152 -15.591618 -13.074296 -5.343528 30.740503 -2.799962 3.679845 -19.632377 0.000000 -0.000000 0.000000 -3.056259 1.615600 -16.470634 2.159396 2.877630 28.405772 2.024837 -3.295570 -15.444653 0.000000 -0.000000 0.000000 0.287378 0.323786 28.258716 3.839000 -1.996492 1.509274 1.545816 -1.004187 3.771388 -1.626269 3.440219 -3.129939 -1.355327 -5.208367 6.737860 -20.607161 2.029228 6.237744 -49.995706 0.773777 9.992746 1.649050 -50.857298 21.435904 -1.565633 -15.437052 -13.478657 20.901177 -0.512056 4.473971 47.919078 -2.733673 11.133625 -14.567969 50.821543 2.743594 -2.424126 9.877828 -8.460430 
-0.026702 -0.082887 0.982029 -179.360153 -2.129283 84.097704 5.978491 0.357423 -14.222034 -10.920809 -5.653528 23.507685 -2.594049 5.011488 -20.383526 0.000000 -0.000000 0.000000 -2.413769 2.810063 -15.962459 1.766845 3.449146 27.434378 2.257144 -3.853894 -15.873051 0.000000 -0.000000 0.000000 0.006814 0.435885 27.397960 3.595074 -1.568150 1.461367 1.330414 -0.725543 4.047970 -0.682582 4.879883 -1.878269 -2.063868 -4.489095 9.732013 -20.509481 3.120609 6.624774 -50.545794 3.196988 10.639626 -0.268008 -49.054987 23.680241 -3.494758 -15.525033 -11.602438 20.556422 -0.829990 4.266977 48.067630 -1.076656 12.239365 -14.897896 56.435215 0.862415 -1.927070 9.964510 -13.104972 
-0.026517 -0.073100 0.982968 179.125406 -1.752053 84.566704 5.496120 0.062136 -12.839884 -8.944745 -6.609256 19.349917 -2.378627 5.940556 -20.420807 0.000000 -0.000000 0.000000 -1.636165 4.018321 -16.039394 1.667494 3.859590 27.992487 2.238952 -4.231336 -17.141414 0.000000 -0.000000 0.000000 -0.141740 0.307797 26.857878 3.380485 -1.121637 1.241187 1.121063 -0.581893 4.610610 0.263933 6.001825 -0.397339 -2.702899 -3.661602 12.442777 -20.177251 4.164100 6.806617 -51.308015 5.164164 11.129775 -1.840752 -48.075153 25.179430 -3.912576 -15.485311 -10.606863 20.076625 -1.141581 3.807097 48.493164 0.461560 13.340334 -14.643621 61.665497 0.525098 -1.409618 10.350684 -16.153725 
-0.026642 -0.063869 0.979898 177.720600 -1.109360 84.630947 5.514008 0.611518 -12.239631 -8.022055 -7.855138 19.507417 -1.987627 6.160461 -20.125957 0.000000 -0.000000 0.000000 -0.684499 5.034176 -16.405343 1.841978 4.199342 29.665437 1.857351 -4.483157 -19.043276 0.000000 -0.000000 0.000000 -0.225132 0.030394 27.134708 3.257853 -0.638844 0.975528 0.979452 -0.509334 5.250450 1.111247 6.791763 0.451305 -3.320673 -3.014847 14.627989 -19.800690 4.858754 6.843874 -52.038357 6.581478 11.249110 -3.181262 -47.728936 26.519068 -3.450529 -15.293476 -10.713708 19.433471 -1.067930 3.315079 49.153505 1.685355 14.265897 -13.761111 65.480051 1.569149 -2.223129 10.911055 -17.424890 
-0.026196 -0.055369 0.974388 176.602923 -0.623945 84.672855 6.189642 1.232794 -12.852102 -8.114211 -7.812232 21.488999 -2.104853 6.535569 -19.829046 0.000000 -0.000000 0.000000 0.102151 5.686657 -16.916072 1.950907 4.510488 31.357723 1.207420 -4.658502 -20.670934 0.000000 -0.000000 0.000000 -0.577957 -0.107931 28.038173 3.180069 -0.315484 1.071627 0.936494 -0.300732 5.628659 1.680542 7.398512 0.354122 -3.474029 -3.018660 15.468276 -19.585958 5.007073 6.732481 -52.227260 7.276516 11.118810 -4.298339 -47.935782 27.627359 -2.403373 -15.042591 -11.124117 18.986749 -0.711861 3.206504 49.818243 2.173576 14.822643 -13.163000 67.578806 2.897895 -4.174314 11.106397 -17.262638 
-0.025088 -0.048667 0.969582 176.382870 -0.475397 85.408866 6.833054 1.321258 -14.073061 -8.474992 -7.108600 22.613566 -2.259897 6.985515 -19.460409 0.000000 -0.000000 0.000000 0.368521 5.900214 -17.910173 1.928221 4.603336 32.425659 0.561841 -4.895295 -21.726332 0.000000 -0.000000 0.000000 -1.086715 -0.130468 28.664356 3.166721 -0.362591 1.655024 0.989916 -0.231126 5.508935 1.758339 7.575633 0.103237 -3.043196 -3.338439 14.592322 -19.485105 4.833391 6.834464 -51.973657 7.272695 10.905502 -4.651073 -48.993090 27.836442 -0.815675 -14.706871 -11.464008 18.816259 -0.480679 3.698273 50.297244 1.660411 14.928165 -12.728142 68.093537 4.258063 -5.503377 10.948434 -16.440729 
-0.024624 -0.043470 0.968909 176.925011 -0.433936 86.739787 6.855163 1.292446 -15.314021 -8.578698 -7.280735 22.662765 -2.301044 7.063242 -19.752687 0.000000 -0.000000 0.000000 0.334018 5.779065 -18.930446 1.813018 4.550191 32.410840 0.344118 -5.208584 -22.594940 0.000000 -0.000000 0.000000 -1.257692 -0.213753 29.161037 3.154404 -0.587750 1.858416 1.112628 -0.558301 5.535503 1.443178 7.370975 -0.222742 -2.534663 -3.358916 12.989844 -19.460737 5.079586 6.915755 -51.570830 7.031442 10.822552 -4.573721 -50.978055 27.247165 2.150413 -14.579366 -12.034135 18.851912 -1.023395 3.924769 50.195792 0.222338 14.909966 -10.170482 67.384533 7.249143 -6.038072 10.809471 -15.521221 
-0.025208 -0.037867 0.972145 177.697760 -0.215923 88.369774 6.705445 1.090321 -16.337267 -8.381151 -8.094037 21.926159 -2.655246 7.287064 -20.385069 0.000000 -0.000000 0.000000 0.362544 5.558541 -19.388988 1.676355 4.550032 30.998911 0.554820 -5.533872 -23.341240 0.000000 -0.000000 0.000000 -0.835734 -0.585938 29.753409 3.118814 -0.745997 1.339044 1.251950 -0.993230 6.022147 0.731755 6.903398 -0.364809 -2.191900 -2.923551 10.935997 -19.689652 6.220477 6.869262 -51.139167 7.224535 10.837741 -4.928663 -53.626718 27.131037 6.222901 -14.780463 -11.916359 18.866445 -2.472888 3.792717 49.319398 -1.996541 14.690258 -5.484369 66.074604 11.454453 -6.651172 10.580330 -15.135899 
-0.026059 -0.032699 0.977182 178.323027 0.124030 90.285594 6.788783 0.658488 -17.355415 -8.092144 -8.558896 20.687802 -2.904586 7.599375 -21.004624 0.000000 -0.000000 0.000000 0.484867 5.498704 -19.808258 1.555969 4.582131 28.975752 0.766039 -6.047131 -24.108911 0.000000 -0.000000 0.000000 -0.289922 -1.124293 30.401382 3.104440 -0.753686 0.556468 1.502115 -1.287830 6.665230 -0.224771 6.317518 -0.566206 -1.952511 -2.170214 8.408684 -19.844673 8.182641 7.003889 -51.413034 8.034436 10.590718 -5.602828 -56.242670 27.547570 9.501715 -14.769012 -12.498018 18.561969 -4.264993 3.868094 48.171722 -4.599948 14.375297 -1.140322 64.568822 15.063532 -7.702698 10.436248 -14.897659 
-0.026653 -0.028507 0.981449 178.479851 0.280831 92.415627 6.891968 0.284299 -18.459560 -7.748426 -8.484182 19.115727 -2.918247 8.061403 -21.633508 0.000000 -0.000000 0.000000 0.402178 5.519009 -20.728970 1.379977 4.493740 27.190746 0.810044 -6.656204 -24.900973 0.000000 -0.000000 0.000000 -0.036753 -1.376524 31.032873 2.996613 -0.634588 0.062469 1.829733 -1.533985 7.292732 -1.102192 5.924647 -0.921856 -1.690038 -1.379844 5.258465 -19.561291 10.197543 7.212636 -52.499847 9.231989 10.429836 -6.830379 -57.554861 28.215310 11.390484 -14.139875 -14.797417 17.920025 -5.945261 4.226056 47.478199 -6.759655 14.186207 1.499401 63.054138 17.002379 -8.768771 9.993818 -14.911657 
-0.026932 -0.025314 0.983587 178.154880 0.234274 94.688369 6.867860 0.363485 -19.882789 -7.466817 -8.055067 17.787087 -2.817552 8.307854 -22.341502 0.000000 -0.000000 0.000000 0.091616 5.513457 -22.342220 1.153277 4.310510 26.063217 0.907957 -7.174425 -25.708012 0.000000 -0.000000 0.000000 -0.052308 -1.245601 31.746099 2.811132 -0.523693 -0.014888 2.072794 -1.741810 7.724703 -1.676599 5.983440 -1.389011 -1.524618 -0.887664 2.191649 -19.192326 11.407105 7.411784 -53.780649 10.502651 10.563806 -8.183224 -56.963851 30.256778 11.709119 -13.942351 -15.751021 17.296112 -7.017689 4.733333 47.498050 -8.137939 13.958519 2.618297 61.574512 17.760571 -9.801020 9.499089 -15.202029 
-0.027351 -0.023171 0.983622 177.685182 0.193045 96.985652 6.866417 0.879435 -21.872869 -7.396755 -7.340894 17.328186 -2.778826 8.108089 -22.971266 0.000000 -0.000000 0.000000 -0.205621 5.559935 -24.520435 0.930844 4.089911 25.736982 1.062331 -7.104583 -26.417594 0.000000 -0.000000 0.000000 -0.045673 -1.110767 33.006206 2.528820 -0.409264 -0.092572 2.152275 -1.754439 7.997528 -2.081504 6.270859 -2.225640 -1.408546 -0.694227 -0.303409 -19.206882 11.722053 7.385322 -55.128437 11.195777 10.565421 -8.334765 -54.848811 32.031632 9.981375 -14.264061 -14.817329 16.960491 -7.392045 5.091953 48.412842 -8.600288 13.473053 2.164029 60.032872 17.232018 -9.836099 9.351078 -15.439455 
-0.028146 -0.021444 0.981524 177.332381 0.308385 99.077429 7.122221 1.387290 -24.389273 -7.674982 -6.308083 18.217735 -2.726994 7.470898 -23.710666 0.000000 -0.000000 0.000000 -0.405270 5.921735 -26.961679 0.698033 3.637943 26.246520 1.101103 -6.642534 -26.862333 0.000000 -0.000000 0.000000 0.053961 -1.238280 35.248283 2.168165 -0.142773 -0.336885 2.171110 -1.576273 8.017362 -2.565887 6.416298 -3.607727 -1.221671 -0.476883 -2.538583 -19.848066 11.085868 7.166379 -56.555908 11.165506 10.263629 -6.344856 -52.440398 31.053119 7.526260 -14.350149 -14.146872 17.026810 -6.921698 5.222155 50.034188 -8.179720 12.738960 -0.136785 58.497802 14.976748 -8.407205 9.297580 -15.681094 
